<?xml version="1.0" encoding="utf-8"?>
<!-- Generator: Adobe Illustrator 21.0.0, SVG Export Plug-In . SVG Version: 6.00 Build 0)  -->
<svg version="1.1" id="Calque_1" xmlns="http://www.w3.org/2000/svg" xmlns:xlink="http://www.w3.org/1999/xlink" x="0px" y="0px"
	 viewBox="0 0 925.5 291" style="enable-background:new 0 0 925.5 291;" xml:space="preserve">
<style type="text/css">
	.st0{fill:#FFFFFF;}
	.st1{display:none;fill:#2D3E4F;}
	.st2{fill:#A8BECC;}
	.st3{fill:#4C6777;}
	.st4{fill:none;stroke:#A8BECC;stroke-width:9;stroke-miterlimit:10;}
	.st5{fill:#8697A3;}
	.st6{fill:#5A6772;}
	.st7{fill:none;stroke:#5A6772;stroke-width:9;stroke-miterlimit:10;}
</style>
<g id="Calque_2">
	<rect x="4536.2" y="441.9" class="st0" width="1040" height="674"/>
</g>
<rect x="-506.2" y="-413.2" class="st1" width="2001.7" height="1301"/>
<g>
	<path class="st2" d="M292.5,174.3c-0.6-0.6-0.7-1.6-0.1-2.2c0.6-0.6,1.6-0.7,2.2-0.1c0.1,0.1,13.1,11.7,29.9,11.7
		c16.6,0,29.6-9.4,29.6-21.3c0-13.7-13.2-16.8-27.1-20c-14.3-3.3-29.1-6.8-29.1-22.5c0-11.2,12-20.5,26.7-20.5
		c17,0,25.9,10,26.2,10.5c0.6,0.6,0.5,1.6-0.1,2.2c-0.7,0.5-1.7,0.5-2.2-0.1c-0.1-0.1-8.4-9.4-23.9-9.4c-12.9,0-23.5,7.8-23.5,17.2
		c0,13.2,12.9,16.3,26.6,19.5c14.5,3.3,29.4,6.8,29.4,23c0,13.7-14.3,24.4-32.6,24.4C306.4,186.7,293,174.8,292.5,174.3z"/>
	<path class="st2" d="M428.4,127.3v57.2c0,1-0.6,1.6-1.5,1.6c-1,0-1.6-0.6-1.6-1.6v-15c-4.7,9.9-14.3,16.6-25.4,16.6
		c-15.8,0-28.5-13.7-28.5-30.2c0-16.5,12.7-30.2,28.5-30.2c11.1,0,20.7,6.9,25.4,16.6v-15c0-0.7,0.6-1.6,1.6-1.6
		C427.7,125.7,428.4,126.6,428.4,127.3z M425.3,155.9c0-14.9-11.5-27-25.4-27c-13.9,0-25.4,12.1-25.4,27c0,15,11.5,27.1,25.4,27.1
		C413.8,183,425.3,170.9,425.3,155.9z"/>
	<path class="st2" d="M454.4,107.9c0-1,0.6-1.6,1.6-1.6c0.7,0,1.5,0.6,1.5,1.6v3c0,0.7-0.7,1.5-1.5,1.5c-1,0-1.6-0.7-1.6-1.5V107.9z
		 M454.4,127.2c0-1,0.6-1.5,1.6-1.5c0.7,0,1.5,0.5,1.5,1.5v57.3c0,0.9-0.7,1.6-1.5,1.6c-1,0-1.6-0.7-1.6-1.6V127.2z"/>
	<path class="st2" d="M485.6,177.3c-0.6-0.6-0.7-1.6-0.1-2.2c0.6-0.6,1.6-0.7,2.2-0.1c0.1,0.1,9,8,20.6,8c11,0,20-6.4,20-14.3
		c0-9.2-9-11.2-18.5-13.4c-9.6-2.3-20.6-4.8-20.6-16.1c0-8.1,8.6-14.7,19.1-14.7c12.1,0,18.4,7,18.6,7.4c0.6,0.6,0.5,1.6-0.1,2.2
		c-0.7,0.6-1.7,0.5-2.2-0.1c-0.1-0.1-5.7-6.3-16.3-6.3c-8.7,0-15.9,5.1-15.9,11.5c0,8.7,8.4,10.7,18.1,13.1
		c9.9,2.2,20.9,4.8,20.9,16.5c0,9.7-10.2,17.4-23.2,17.4C495.5,186.1,486,177.7,485.6,177.3z"/>
	<path class="st2" d="M549.6,107.9c0-1,0.6-1.6,1.6-1.6c0.7,0,1.5,0.6,1.5,1.6v3c0,0.7-0.7,1.5-1.5,1.5c-1,0-1.6-0.7-1.6-1.5V107.9z
		 M549.6,127.2c0-1,0.6-1.5,1.6-1.5c0.7,0,1.5,0.5,1.5,1.5v57.3c0,0.9-0.7,1.6-1.5,1.6c-1,0-1.6-0.7-1.6-1.6V127.2z"/>
	<path class="st2" d="M579.8,155.9c0.2-16.8,13.2-30.2,29.3-30.2c15.4,0,27.8,12.2,29,27.8v0.1v0.2v0.1c-0.1,0.7-0.7,1.5-1.5,1.5
		h-53.7v0.4c0,14.8,11.7,27,26.2,27.1c9.1,0,17.1-4.9,21.7-12.3c0.5-0.7,1.4-0.7,2.2-0.4c0.6,0.4,0.9,1.4,0.4,2.1
		c-5.2,8-14.2,13.7-24.3,13.7C592.9,185.8,580,172.4,579.8,155.9z M583,152.6h52c-1.6-13.4-12.7-23.7-25.9-23.7
		C595.7,128.9,584.6,139.1,583,152.6z"/>
	<path class="st3" d="M660.5,102.8c0-1.6,1.4-3,3-3h0.4h24c13.6,0,24.5,11.1,24.5,24.6c0,13.6-11,24.5-24.5,24.5l-21.3,0.2v33.9
		c0,1.6-1.4,3-3.1,3c-1.6,0-3-1.4-3-3V102.8z M687.8,143.2c10.2-0.1,18.6-8.5,18.6-18.7s-8.4-18.6-18.6-18.6h-21.3v37.3H687.8z"/>
	<path class="st3" d="M781.6,128.7v54.5c0,1.6-1.4,3-3,3s-3-1.4-3-3v-9c-5.2,7.1-13.4,12-22.7,12c-15.9,0-28.6-13.7-28.6-30.2
		c0-16.5,12.7-30.2,28.6-30.2c9.2,0,17.5,4.7,22.7,11.8v-8.9c0-1.7,1.4-3,3-3S781.6,127,781.6,128.7z M775.6,155.9
		c0-13.6-10.2-24.4-22.7-24.4c-12.3,0-22.7,10.8-22.7,24.4c0,13.6,10.3,24.3,22.7,24.3C765.4,180.2,775.6,169.5,775.6,155.9z"/>
	<path class="st3" d="M807.3,109c0-1.6,1.4-3,3-3c1.7,0,3.1,1.4,3.1,3v2.8c0,1.7-1.4,3.2-3.1,3.2c-1.6,0-3-1.5-3-3.2V109z
		 M807.3,128.7c0-1.7,1.4-3,3-3c1.7,0,3.1,1.2,3.1,3v54.5c0,1.6-1.4,3-3.1,3c-1.6,0-3-1.4-3-3V128.7z"/>
	<path class="st3" d="M837.5,156c0-16.8,13.1-30.3,29.3-30.3c15.5,0,27.8,12.3,29.1,28.1v0.1v0.4c0,1.6-1.4,2.7-3,2.7h-49.5
		c0.6,13.2,11,23.2,23.4,23.2c8,0,15.4-4.2,19.5-11c0.9-1.5,2.7-1.7,3.9-1c1.4,1,1.8,2.7,1,4.2c-5.2,8.3-14.2,13.7-24.4,13.7
		C850.5,186.1,837.5,172.5,837.5,156z M843.8,151.2h45.7c-2-11.3-11.6-19.6-22.7-19.6C855.5,131.6,846,139.8,843.8,151.2z"/>
</g>
<circle class="st4" cx="133.7" cy="147.9" r="107"/>
<g>
	<path class="st2" d="M100.5,158.1c1-1.3,2.8-1.4,4-0.4c6.6,5.4,17.7,11.6,29.3,11.5c7.8,0,14.8-2.3,19.6-5.9
		c5-3.6,7.7-8.3,7.7-13.3c0-5.1-2.4-8.9-7.3-12.2c-4.8-3.2-12-5.6-20.7-7.3h-0.3c-8.3-1.5-15.6-3.8-21-7.5
		c-5.5-3.6-9.2-8.9-9.2-15.6c0-6.8,3.7-12.6,9.3-16.7s13.1-6.5,21.6-6.5c11.7,0,20.5,5.7,27.6,10.3c1.3,0.9,1.7,2.6,0.8,4
		c-0.8,1.3-2.6,1.7-3.8,0.8c-7-4.6-14.7-9.4-24.5-9.4c-7.3,0-13.8,2.2-18.2,5.4c-4.5,3.3-7,7.7-7,12.2c0.1,4.5,2.2,7.8,6.6,10.8
		c4.5,3.1,11.1,5.2,19.1,6.8h0.3c8.9,1.7,16.8,4.2,22.7,8.2c5.9,3.8,9.8,9.7,9.8,16.8s-4.1,13.5-10.1,17.9c-6,4.3-14,7-23,7
		c-13.6-0.1-25.5-7-32.9-12.9C99.8,161,99.6,159.2,100.5,158.1z"/>
</g>
<g>
	<path class="st2" d="M140.6,178.4h-15.7v27.7c0,3.8-3.2,7-7.1,7c-3.8,0-7-3.2-7-7v-75.3c0-4,3.2-7,7-7h0.1h22.7
		c15.2,0,27.4,12.2,27.4,27.4C168,166.2,155.8,178.4,140.6,178.4z M124.9,164.3h15.7c7.4,0,13.1-5.9,13.3-13
		c-0.1-7.4-5.9-13.3-13.3-13.3h-15.7V164.3z"/>
</g>
<text transform="matrix(1 0 0 1 129.3427 -474.1666)"><tspan x="0" y="0" class="st5" style="font-family:'Quicksand-Light'; font-size:166.431px;">Saisi</tspan><tspan x="389.4" y="0" class="st5" style="font-family:'Quicksand-Light'; font-size:166.431px; letter-spacing:1;">e</tspan><tspan x="492.5" y="0" class="st6" style="font-family:'Quicksand-Regular'; font-size:166.431px;">Paie</tspan></text>
<circle class="st7" cx="-36.3" cy="-532.1" r="107"/>
<g>
	<path class="st6" d="M-65.4-509.9c-0.7-0.5-0.7-1.5-0.1-2.1c0.6-0.6,1.2-0.5,2.3-0.2c0.1,0.1,14.1,2.7,29.9,2.7
		c15.6,0,27.8-8.8,27.8-20c0-12.8-14.5-16.4-27.5-19.4c-13.4-3.1-25.2-5.7-25.2-20.5c0-10.5,11.2-19.2,25.1-19.2
		c16,0,24.3,9.4,24.6,9.8c0.6,0.6,0.5,1.5-0.1,2.1c-0.7,0.5-1.6,0.5-2.1-0.1c-0.1-0.1-7.9-8.8-22.4-8.8c-12.1,0-22.1,7.3-22.1,16.2
		c0,12.4,10.1,14.6,22.9,17.6c13.6,3.1,29.7,7.1,29.7,22.3c0,12.8-13.4,22.9-30.6,22.9C-50.2-506.6-64.8-509.5-65.4-509.9z"/>
</g>
<g>
	<path class="st6" d="M-50.9-548.8c0-1.5,1.3-2.8,2.8-2.8h0.3h22.5c12.7,0,23,10.4,23,23.1c0,12.7-10.3,23-23,23l-20,0.2v31.8
		c0,1.5-1.3,2.8-2.9,2.8c-1.5,0-2.8-1.3-2.8-2.8V-548.8z M-25.3-510.9c9.6-0.1,17.5-8,17.5-17.6c0-9.6-7.9-17.5-17.5-17.5h-20v35
		H-25.3z"/>
</g>
</svg>
